# xmcd
#
# Track frame offsets:
#	150
#	16074
#	31996
#	50161
#	71367
#	91617
#	112852
#	133423
#	150219
#	167855
#	180035
#	194768
#	209724
#
# Disc length: 3089 seconds
#
# Revision: 1
# Processed by: cddbd v1.5.2PL0 Copyright (c) Steve Scherf et al.
# Submitted via: audiograbber 1.83.01
#
DISCID=a60c0f0d
DTITLE=P.O.D. - When Angels and Serpents Dance
DYEAR=2008
DGENRE=Crossover
TTITLE0=Addicted
TTITLE1=Shine With Me
TTITLE2=Condenscending
TTITLE3=It Can't Rain Everyday
TTITLE4=Kaliforn-Eye-a (ft Mike Muir)
TTITLE5=I'll Be Ready (ft Marley Girls/ The Melody Makers)
TTITLE6=End Of The World
TTITLE7=This Ain't No Ordinary Love Song
TTITLE8=God Forbid (ft Page Hamilton)
TTITLE9=Roman Empire
TTITLE10=When Angels And Serpents Dance
TTITLE11=Tell Me Why
TTITLE12=Rise Against
EXTD=
EXTT0=
EXTT1=
EXTT2=
EXTT3=
EXTT4=
EXTT5=
EXTT6=
EXTT7=
EXTT8=
EXTT9=
EXTT10=
EXTT11=
EXTT12=
PLAYORDER=
